<svg width="121" height="52" viewBox="0 0 121 52" fill="none" xmlns="http://www.w3.org/2000/svg">
<path d="M25.9498 42.5465C16.7698 42.5465 9.33594 35.0953 9.33594 25.9153C9.33594 23.9271 9.69899 21.9563 10.3905 20.1065C10.5461 19.5187 11.1685 19.1729 11.7563 19.3285C12.3441 19.4841 12.6898 20.1065 12.5342 20.6943C12.517 20.7634 12.4997 20.8153 12.4651 20.8844C9.6817 28.3183 13.4505 36.6166 20.8844 39.4C28.3183 42.1834 36.6166 38.4146 39.4 30.9807C40.6101 27.7305 40.6101 24.1519 39.4 20.8844C39.1579 20.3139 39.4346 19.657 40.0051 19.4322C40.5756 19.2075 41.2325 19.4668 41.4573 20.0373C41.4746 20.0546 41.4746 20.0892 41.4746 20.1065C44.6901 28.6987 40.3335 38.2763 31.7241 41.5092C29.8569 42.2007 27.8861 42.5637 25.9152 42.5637H25.9498V42.5465Z" fill="#00A3A4"/>
<path d="M34.1789 20.1929C33.8504 20.1929 33.5393 20.0546 33.3318 19.7953C29.9433 15.7153 23.8752 15.1621 19.8125 18.5679C19.363 18.9482 18.9481 19.3458 18.585 19.7953C18.1874 20.2621 17.4786 20.2967 17.0118 19.899C16.5623 19.5014 16.5105 18.8445 16.8735 18.3777C21.0572 13.3641 28.5084 12.6899 33.522 16.8736C34.0579 17.3231 34.5593 17.8245 35.026 18.3777C35.4237 18.8445 35.3545 19.5533 34.8877 19.9336C34.6803 20.1065 34.4209 20.1929 34.1789 20.1929Z" fill="#00A3A4"/>
<path d="M30.5659 23.2012C30.2374 23.2012 29.9089 23.0629 29.7015 22.8035C27.9727 20.729 24.8781 20.4351 22.8035 22.1812C22.5788 22.3713 22.3713 22.5788 22.1811 22.8035C21.7835 23.2703 21.0747 23.3395 20.6079 22.9418C20.1411 22.5442 20.072 21.8354 20.4696 21.3686C22.9937 18.3432 27.4886 17.9283 30.5313 20.4523C30.8598 20.729 31.171 21.0401 31.4476 21.3686C31.8452 21.8354 31.776 22.5442 31.3093 22.9418C31.0845 23.1147 30.8252 23.2012 30.5659 23.2012Z" fill="#00A3A4"/>
<path d="M28.2554 26.3175C28.4619 25.0452 27.5978 23.8463 26.3255 23.6398C25.0531 23.4334 23.8543 24.2974 23.6478 25.5697C23.4413 26.8421 24.3054 28.0409 25.5777 28.2474C26.8501 28.4539 28.0489 27.5899 28.2554 26.3175Z" fill="#00A3A4"/>
<path d="M50.6892 24.7916H48.5109C48.2689 19.6052 46.2116 14.6608 42.7194 10.8228L44.258 9.28417C44.7075 8.83468 44.7075 8.09129 44.258 7.6418C43.8085 7.19231 43.0652 7.19231 42.6157 7.6418L41.077 9.18044C37.2391 5.68824 32.2947 3.64824 27.1082 3.38892V1.21062C27.1255 0.570957 26.6414 0.0350251 26.0018 0.000448894C25.3621 -0.0168392 24.8262 0.467228 24.7916 1.10689C24.7916 1.14147 24.7916 1.15875 24.7916 1.19333V3.37163C19.6052 3.61367 14.6608 5.67095 10.8228 9.16315L9.28417 7.62451C8.83468 7.17502 8.09129 7.17502 7.6418 7.62451C7.19231 8.074 7.19231 8.81739 7.6418 9.26688L9.18044 10.8055C5.68824 14.6435 3.64824 19.5879 3.38892 24.7743H1.21062C0.570957 24.757 0.0350251 25.2411 0.000448894 25.8808C-0.0168392 26.5204 0.467228 27.0564 1.10689 27.0909C1.14147 27.0909 1.15875 27.0909 1.19333 27.0909H3.37163C3.61367 32.2774 5.67095 37.2218 9.16315 41.0597L7.62451 42.5984C7.17502 43.0479 7.17502 43.7913 7.62451 44.2407C8.074 44.6902 8.81739 44.6902 9.26688 44.2407L10.8055 42.7021C14.6435 46.1943 19.5879 48.2343 24.7743 48.4936V50.6719C24.757 51.3116 25.2411 51.8475 25.8808 51.8821C26.5204 51.8994 27.0564 51.4153 27.0909 50.7757C27.0909 50.7411 27.0909 50.7238 27.0909 50.6892V48.5109C32.2774 48.2689 37.2218 46.2116 41.0597 42.7194L42.5984 44.258C43.0479 44.7075 43.7913 44.7075 44.2407 44.258C44.6902 43.8085 44.6902 43.0652 44.2407 42.6157L42.7021 41.077C46.1943 37.2391 48.2343 32.2947 48.4936 27.1082H50.6719C51.3116 27.1255 51.8475 26.6414 51.8821 26.0018C51.8994 25.3621 51.4153 24.8262 50.7757 24.7916C50.7411 24.7916 50.7238 24.7916 50.6892 24.7916ZM25.9499 45.5028C15.1448 45.5028 6.37977 36.7377 6.37977 25.9326C6.37977 15.1276 15.1448 6.36248 25.9499 6.36248C36.755 6.36248 45.5201 15.1276 45.5201 25.9326C45.5028 36.7377 36.755 45.5028 25.9499 45.5028Z" fill="#00A3A4"/>
<path d="M37.844 17.133C37.5155 17.133 37.2044 16.9947 36.9969 16.7354C31.9142 10.6327 22.8379 9.80288 16.7352 14.9029C16.061 15.4561 15.4559 16.0785 14.9027 16.7354C14.4878 17.1849 13.7962 17.2368 13.3295 16.8219C12.8973 16.4242 12.8281 15.7673 13.1912 15.3178C19.0691 8.26424 29.5457 7.33068 36.582 13.2086C37.3427 13.8483 38.0515 14.5571 38.6911 15.3178C39.0888 15.7846 39.0196 16.4934 38.5528 16.891C38.3454 17.0466 38.1033 17.133 37.844 17.133Z" fill="#00A3A4"/>
<path d="M60.7512 24.2558H64.8139C65.5919 24.2731 66.3525 24.1175 67.0786 23.8236C67.7183 23.5642 68.2542 23.132 68.6519 22.5615C69.0495 21.9737 69.2397 21.2649 69.2224 20.5561C69.2224 19.3632 68.8075 18.4297 67.9603 17.7727C67.1305 17.1158 66.0759 16.7873 64.7966 16.7873H61.9959C61.6675 16.7873 61.3909 17.0639 61.3909 17.3924V35.908C61.3909 36.2364 61.6675 36.5131 61.9959 36.5131H65.1597C66.1451 36.5303 67.1132 36.3402 68.0122 35.9425C68.8075 35.5968 69.4817 35.009 69.9485 34.3002C70.4325 33.5222 70.6746 32.6059 70.64 31.6724C70.6573 30.9636 70.519 30.272 70.2424 29.6324C69.9831 29.0446 69.6027 28.5259 69.1186 28.1283C68.6 27.7134 68.0122 27.4022 67.3725 27.212C66.6464 27.0046 65.9031 26.9009 65.1424 26.9009H60.7339V25.2066H65.1424C66.2834 25.1893 67.4071 25.3276 68.5136 25.6042C69.4817 25.8463 70.398 26.2612 71.2278 26.8144C71.9885 27.3331 72.6108 28.0419 73.043 28.8717C73.4925 29.8053 73.7173 30.8253 73.6827 31.8453C73.6827 33.4876 73.3024 34.8707 72.559 35.9598C71.7983 37.049 70.7437 37.8961 69.499 38.3975C68.1159 38.9507 66.6292 39.2273 65.1424 39.21H59.8003C59.0051 39.21 58.3481 38.553 58.3481 37.7578V15.6809C58.3481 14.8165 59.057 14.1076 59.9214 14.1076H64.8139C65.8512 14.0904 66.8712 14.2287 67.8566 14.488C68.7037 14.7127 69.5163 15.0931 70.2078 15.629C70.8647 16.1476 71.3834 16.8219 71.7291 17.5826C72.1095 18.4643 72.2824 19.4151 72.2651 20.3832C72.2997 21.4551 71.9712 22.527 71.3315 23.3914C70.6746 24.2558 69.7583 24.9127 68.7383 25.2931C67.6319 25.7253 66.318 25.9327 64.8139 25.9327H60.7512V24.2558Z" fill="#00A3A4"/>
<path d="M92.8377 36.8069L87.098 28.8717C87.7204 28.7334 88.3255 28.5086 88.896 28.2493C90.1407 27.6788 91.1953 26.7625 91.956 25.6388C92.7167 24.4978 93.0797 23.1666 93.0797 21.6452C93.0797 20.0893 92.6994 18.7581 91.956 17.6171C91.1953 16.4934 90.1407 15.5944 88.896 15.0239C87.5302 14.4015 86.0434 14.0903 84.5394 14.1076H79.2492C78.4021 14.1076 77.7279 14.7819 77.7279 15.629V37.6367C77.7106 38.4839 78.3848 39.1754 79.2319 39.21C80.0791 39.2272 80.7706 38.553 80.7879 37.7232C80.7879 37.7059 80.7879 37.7059 80.7879 37.6886V29.7879C80.7879 29.4422 81.0645 29.1656 81.4102 29.1656H83.5194C83.7268 29.1656 83.917 29.2693 84.038 29.4422L90.3828 38.5703C90.6594 38.9852 91.1262 39.2273 91.6275 39.2273C92.4573 39.2273 93.1489 38.5357 93.1316 37.7059C93.1316 37.3774 93.0278 37.0662 92.8377 36.8069ZM80.7706 17.4096C80.7706 17.0639 81.0472 16.7873 81.3929 16.7873H84.5394C85.5248 16.77 86.4929 16.9602 87.3919 17.3578C88.1872 17.7035 88.8614 18.2913 89.3282 19.0174C90.2617 20.6425 90.2617 22.6307 89.3282 24.2557C88.8614 24.9818 88.1872 25.5524 87.3919 25.8981C86.4929 26.2957 85.5248 26.4859 84.5394 26.4686H81.3929C81.0472 26.4686 80.7706 26.192 80.7706 25.8462V17.4096Z" fill="#00A3A4"/>
<path d="M100.548 15.629V37.6887C100.548 38.5358 99.8566 39.21 99.0267 39.21C98.1796 39.21 97.5054 38.5358 97.5054 37.6887V15.629C97.5054 14.7819 98.1796 14.1077 99.0267 14.1077C99.8566 14.1077 100.548 14.7819 100.548 15.629Z" fill="#00A3A4"/>
<path d="M105.562 14.1077H118.13C119.254 14.1077 120.17 15.0239 120.17 16.1477C120.17 16.5107 120.067 16.8738 119.876 17.1849L108.847 35.7697C108.743 35.9598 108.795 36.1846 108.985 36.3056C109.037 36.3402 109.106 36.3575 109.192 36.3575H119.565C120.36 36.3575 121 36.9971 121 37.7924C121 38.5876 120.36 39.2273 119.565 39.2273H106.997C105.873 39.2273 104.957 38.311 104.957 37.1873C104.957 36.8243 105.061 36.4612 105.251 36.15L116.28 17.5653C116.384 17.3751 116.332 17.1504 116.142 17.0294C116.09 16.9948 116.021 16.9775 115.935 16.9775H105.562C104.767 16.9775 104.127 16.3378 104.127 15.5426C104.127 14.7473 104.784 14.1077 105.562 14.1077Z" fill="#00A3A4"/>
</svg>
