<svg width="97" height="42" viewBox="0 0 97 42" fill="none" xmlns="http://www.w3.org/2000/svg">
<path d="M20.8029 34.1074C13.4438 34.1074 7.48438 28.1342 7.48438 20.775C7.48438 19.1812 7.77541 17.6013 8.32978 16.1184C8.45451 15.6472 8.95344 15.37 9.42464 15.4947C9.89585 15.6194 10.173 16.1184 10.0483 16.5896C10.0344 16.645 10.0206 16.6866 9.99286 16.742C7.76155 22.7014 10.7828 29.3538 16.7422 31.5851C22.7016 33.8164 29.354 30.7951 31.5853 24.8357C32.5554 22.2302 32.5554 19.3614 31.5853 16.742C31.3913 16.2847 31.613 15.758 32.0703 15.5779C32.5277 15.3977 33.0543 15.6056 33.2345 16.0629C33.2484 16.0768 33.2484 16.1045 33.2484 16.1184C35.8261 23.0063 32.3337 30.6842 25.4319 33.2759C23.9351 33.8302 22.3551 34.1213 20.7752 34.1213H20.8029V34.1074Z" fill="white"/>
<path d="M27.3996 16.1878C27.1362 16.1878 26.8868 16.0769 26.7205 15.8691C24.0041 12.5983 19.1396 12.1548 15.8827 14.8851C15.5223 15.19 15.1897 15.5087 14.8987 15.8691C14.5799 16.2432 14.0117 16.271 13.6375 15.9522C13.2772 15.6334 13.2356 15.1068 13.5266 14.7326C16.8805 10.7135 22.8538 10.173 26.8729 13.5269C27.3025 13.8872 27.7045 14.2891 28.0787 14.7326C28.3974 15.1068 28.342 15.675 27.9678 15.9799C27.8015 16.1185 27.5936 16.1878 27.3996 16.1878Z" fill="white"/>
<path d="M24.5035 18.5989C24.2402 18.5989 23.9769 18.488 23.8105 18.2801C22.4246 16.617 19.9439 16.3814 18.2808 17.7812C18.1006 17.9336 17.9343 18.0999 17.7819 18.2801C17.4631 18.6543 16.8949 18.7097 16.5207 18.391C16.1465 18.0722 16.0911 17.504 16.4098 17.1298C18.4332 14.7045 22.0366 14.3719 24.4758 16.3953C24.7391 16.617 24.9886 16.8665 25.2103 17.1298C25.5291 17.504 25.4736 18.0722 25.0994 18.391C24.9193 18.5296 24.7114 18.5989 24.5035 18.5989Z" fill="white"/>
<path d="M22.6512 21.0972C22.8168 20.0773 22.1241 19.1163 21.1041 18.9507C20.0841 18.7852 19.1231 19.4779 18.9575 20.4979C18.7919 21.5179 19.4846 22.4789 20.5046 22.6444C21.5245 22.8099 22.4856 22.1172 22.6512 21.0972Z" fill="white"/>
<path d="M40.6351 19.8742H38.8889C38.6948 15.7165 37.0456 11.7528 34.2461 8.67613L35.4795 7.44267C35.8399 7.08234 35.8399 6.4864 35.4795 6.12606C35.1192 5.76573 34.5233 5.76573 34.1629 6.12606L32.9295 7.35952C29.8528 4.55999 25.8891 2.92462 21.7314 2.71673V0.970494C21.7452 0.457709 21.3572 0.028078 20.8444 0.000359857C20.3316 -0.0134992 19.902 0.374555 19.8742 0.88734C19.8742 0.915058 19.8742 0.928917 19.8742 0.956635V2.70288C15.7165 2.8969 11.7528 4.54613 8.67613 7.34566L7.44267 6.11221C7.08234 5.75187 6.4864 5.75187 6.12606 6.11221C5.76573 6.47254 5.76573 7.06848 6.12606 7.42882L7.35952 8.66227C4.55999 11.739 2.92462 15.7027 2.71673 19.8604H0.970494C0.457709 19.8465 0.028078 20.2346 0.000359857 20.7474C-0.0134992 21.2602 0.374555 21.6898 0.88734 21.7175C0.915058 21.7175 0.928917 21.7175 0.956635 21.7175H2.70288C2.8969 25.8752 4.54613 29.8389 7.34566 32.9156L6.1122 34.1491C5.75187 34.5094 5.75187 35.1054 6.1122 35.4657C6.47254 35.826 7.06848 35.826 7.42881 35.4657L8.66227 34.2322C11.739 37.0318 15.7027 38.6671 19.8604 38.875V40.6213C19.8465 41.134 20.2346 41.5637 20.7474 41.5914C21.2602 41.6053 21.6898 41.2172 21.7175 40.7044C21.7175 40.6767 21.7175 40.6628 21.7175 40.6351V38.8889C25.8752 38.6948 29.8389 37.0456 32.9156 34.2461L34.1491 35.4795C34.5094 35.8399 35.1054 35.8399 35.4657 35.4795C35.826 35.1192 35.826 34.5233 35.4657 34.1629L34.2322 32.9295C37.0318 29.8528 38.6671 25.8891 38.875 21.7314H40.6213C41.134 21.7452 41.5637 21.3572 41.5914 20.8444C41.6053 20.3316 41.2172 19.902 40.7044 19.8742C40.6767 19.8742 40.6628 19.8742 40.6351 19.8742ZM20.8028 36.4774C12.1409 36.4774 5.11435 29.4509 5.11435 20.7889C5.11435 12.127 12.1409 5.10049 20.8028 5.10049C29.4647 5.10049 36.4913 12.127 36.4913 20.7889C36.4774 29.4509 29.4647 36.4774 20.8028 36.4774Z" fill="white"/>
<path d="M30.3379 13.7349C30.0746 13.7349 29.8251 13.6241 29.6588 13.4162C25.5843 8.52392 18.3082 7.85869 13.416 11.9471C12.8755 12.3906 12.3904 12.8895 11.9469 13.4162C11.6143 13.7765 11.06 13.8181 10.6858 13.4855C10.3393 13.1667 10.2839 12.6401 10.5749 12.2797C15.287 6.62523 23.6856 5.87684 29.3262 10.5889C29.936 11.1017 30.5042 11.6699 31.017 12.2797C31.3358 12.6539 31.2803 13.2221 30.9061 13.5409C30.7398 13.6656 30.5458 13.7349 30.3379 13.7349Z" fill="white"/>
<path d="M48.7013 19.445H51.9582C52.5818 19.4589 53.1916 19.3341 53.7737 19.0985C54.2865 18.8907 54.7161 18.5442 55.0349 18.0868C55.3537 17.6156 55.5061 17.0474 55.4922 16.4792C55.4922 15.5229 55.1596 14.7745 54.4805 14.2479C53.8153 13.7212 52.9699 13.4579 51.9443 13.4579H49.6992C49.4358 13.4579 49.2141 13.6797 49.2141 13.943V28.786C49.2141 29.0494 49.4358 29.2711 49.6992 29.2711H52.2354C53.0253 29.285 53.8014 29.1325 54.5221 28.8137C55.1596 28.5366 55.7001 28.0654 56.0743 27.4971C56.4624 26.8735 56.6564 26.1389 56.6287 25.3906C56.6426 24.8223 56.5317 24.268 56.3099 23.7552C56.1021 23.284 55.7972 22.8682 55.4091 22.5494C54.9933 22.2168 54.5221 21.9674 54.0093 21.8149C53.4272 21.6486 52.8313 21.5655 52.2215 21.5655H48.6875V20.2073H52.2215C53.1362 20.1934 54.0371 20.3043 54.924 20.526C55.7001 20.7201 56.4347 21.0527 57.0999 21.4962C57.7097 21.9119 58.2086 22.4802 58.5551 23.1454C58.9154 23.8938 59.0956 24.7115 59.0679 25.5291C59.0679 26.8458 58.763 27.9545 58.167 28.8276C57.5572 29.7007 56.7118 30.3798 55.714 30.7817C54.6053 31.2252 53.4134 31.447 52.2215 31.4331H47.9391C47.3015 31.4331 46.7749 30.9065 46.7749 30.2689V12.5709C46.7749 11.878 47.3431 11.3098 48.0361 11.3098H51.9582C52.7897 11.2959 53.6074 11.4068 54.3974 11.6147C55.0765 11.7948 55.7279 12.0997 56.2822 12.5293C56.8089 12.9451 57.2246 13.4856 57.5018 14.0954C57.8067 14.8022 57.9453 15.5645 57.9314 16.3406C57.9592 17.1999 57.6958 18.0591 57.1831 18.7521C56.6564 19.445 55.9219 19.9717 55.1042 20.2766C54.2172 20.623 53.1639 20.7893 51.9582 20.7893H48.7013V19.445Z" fill="white"/>
<path d="M74.4236 29.5061L69.8224 23.1448C70.3213 23.0339 70.8064 22.8537 71.2638 22.6458C72.2616 22.1885 73.107 21.454 73.7168 20.5531C74.3266 19.6384 74.6176 18.5713 74.6176 17.3517C74.6176 16.1044 74.3127 15.0372 73.7168 14.1225C73.107 13.2217 72.2616 12.501 71.2638 12.0437C70.1689 11.5447 68.977 11.2953 67.7713 11.3091H63.5304C62.8513 11.3091 62.3108 11.8496 62.3108 12.5287V30.1713C62.2969 30.8504 62.8375 31.4048 63.5165 31.4325C64.1956 31.4463 64.75 30.9058 64.7639 30.2406C64.7639 30.2268 64.7639 30.2268 64.7639 30.2129V23.8793C64.7639 23.6021 64.9856 23.3804 65.2628 23.3804H66.9536C67.1199 23.3804 67.2724 23.4635 67.3694 23.6021L72.4556 30.9197C72.6774 31.2523 73.0516 31.4463 73.4535 31.4463C74.1187 31.4463 74.6731 30.892 74.6592 30.2268C74.6592 29.9634 74.5761 29.714 74.4236 29.5061ZM64.75 13.9562C64.75 13.679 64.9717 13.4573 65.2489 13.4573H67.7713C68.5612 13.4434 69.3373 13.5959 70.058 13.9146C70.6955 14.1918 71.236 14.663 71.6102 15.2451C72.3586 16.5479 72.3586 18.1417 71.6102 19.4444C71.236 20.0265 70.6955 20.4838 70.058 20.761C69.3373 21.0798 68.5612 21.2322 67.7713 21.2184H65.2489C64.9717 21.2184 64.75 20.9966 64.75 20.7194V13.9562Z" fill="white"/>
<path d="M80.6042 12.5292V30.2133C80.6042 30.8924 80.0499 31.4329 79.3846 31.4329C78.7055 31.4329 78.165 30.8924 78.165 30.2133V12.5292C78.165 11.8501 78.7055 11.3096 79.3846 11.3096C80.0499 11.3096 80.6042 11.8501 80.6042 12.5292Z" fill="white"/>
<path d="M84.6239 11.3096H94.6995C95.6003 11.3096 96.3348 12.0441 96.3348 12.9449C96.3348 13.236 96.2517 13.527 96.0992 13.7765L87.2572 28.675C87.174 28.8274 87.2156 29.0076 87.368 29.1046C87.4096 29.1323 87.465 29.1462 87.5343 29.1462H95.8498C96.4873 29.1462 97.0001 29.659 97.0001 30.2965C97.0001 30.934 96.4873 31.4468 95.8498 31.4468H85.7742C84.8734 31.4468 84.1389 30.7122 84.1389 29.8114C84.1389 29.5204 84.222 29.2293 84.3745 28.9799L93.2165 14.0814C93.2997 13.9289 93.2581 13.7488 93.1057 13.6517C93.0641 13.624 93.0087 13.6102 92.9394 13.6102H84.6239C83.9864 13.6102 83.4736 13.0974 83.4736 12.4599C83.4736 11.8224 84.0003 11.3096 84.6239 11.3096Z" fill="white"/>
</svg>
